# xmcd CD database file
#
# Track frame offsets:
#	150
#	21123
#	39698
#	53825
#	73536
#	91413
#	111230
#	129238
#	143336
#	168019
#	188584
#	212127
#	230190
#	247683
#	263736
#	285669
#	292726
#	314177
#
# Disc length: 4453 seconds
#
# Revision: 2
# Processed by: cddbd v1.4b41PL1 Copyright (c) Steve Scherf et al.
# Submitted via: Feurio! 1.52 - http://www.feurio.com
#
DISCID=fb116312
DTITLE=Böhse Onkelz - Buch der Erinnerungen
DYEAR=1900
DGENRE=
TTITLE0=Buch der Erinnerung
TTITLE1=Erkennen Sie die Melodie
TTITLE2=Willkommen
TTITLE3=Wir sind nicht allein
TTITLE4=Nur die besten sterben jung
TTITLE5=Nenn' mich wie du willst
TTITLE6=Lieber stehend sterben
TTITLE7=Gehasst, verdammt, vergöttert
TTITLE8=Worte der Freiheit
TTITLE9=Deutschland im Herbst
TTITLE10=Diese Lieder
TTITLE11=Wenn wir einmal Engel sind
TTITLE12=Das erste Blut
TTITLE13=Fahrt zur Hölle
TTITLE14=Wir ham' noch lange nicht genug
TTITLE15=Intro Oratorium
TTITLE16=Heilige Lieder
TTITLE17=Die Boehsen Onkelz geben sich die Ehre
EXTD=
EXTT0=
EXTT1=
EXTT2=
EXTT3=
EXTT4=
EXTT5=
EXTT6=
EXTT7=
EXTT8=
EXTT9=
EXTT10=
EXTT11=
EXTT12=
EXTT13=
EXTT14=
EXTT15=
EXTT16=
EXTT17=
PLAYORDER=
